ffmpeg started on 2025-06-16 at 16:24:24
Report written to "D:\Convert\FFMetrics\reports\psnr_report-6.txt"
Log level: 32
Command line:
ffmpeg -hide_banner -nostdin -i "G:\\\xc0\xed\xe8\xec\xe5\\[\xd2\xee\xef]\\\xd0\xfb\xf6\xe0\xf0\xfc-\xe2\xe0\xec\xef\xe8\xf0\\\xd2\xc2-1\\[JamClub] Vampire Knight - 07_HEVC.mkv" -i "G:\\\xc0\xed\xe8\xec\xe5\\[\xd2\xee\xef]\\\xd0\xfb\xf6\xe0\xf0\xfc-\xe2\xe0\xec\xef\xe8\xf0\\\xd2\xc2-1\\[JamClub] Vampire Knight - 07.mp4" -lavfi "[0:v]settb=AVTB,setpts=PTS-STARTPTS,format=pix_fmts=yuv420p10,fps=24000/1001,scale=1920:1080:flags=bicubic[main];[1:v]settb=AVTB,setpts=PTS-STARTPTS,format=pix_fmts=yuv420p,fps=24000/1001,scale=1920:1080:flags=bicubic[ref];[main][ref]psnr=eof_action=endall:stats_file='D\\:/Convert/FFMetrics/logs/psnr_logfile-6.txt'" -f null -
Input #0, matroska,webm, from 'G:\Аниме\[Топ]\Рыцарь-вампир\ТВ-1\[JamClub] Vampire Knight - 07_HEVC.mkv':
  Metadata:
    COMPATIBLE_BRANDS: isomiso2avc1mp41
    MAJOR_BRAND     : isom
    MINOR_VERSION   : 512
    ENCODER         : Lavf61.7.100
  Duration: 00:24:21.71, start: -0.001000, bitrate: 966 kb/s
  Stream #0:0: Video: hevc (Main 10), yuv420p10le(tv, bt709, progressive), 1920x1080 [SAR 1:1 DAR 16:9], 23.98 fps, 23.98 tbr, 1k tbn (default)
      Metadata:
        HANDLER_NAME    : VideoHandler
        VENDOR_ID       : [0][0][0][0]
        ENCODER         : Lavc61.19.100 libx265
        BPS             : 768314
        DURATION        : 00:24:21.626708333
        NUMBER_OF_FRAMES: 43672
        NUMBER_OF_BYTES : 140373528
        _STATISTICS_WRITING_APP: mkvpropedit v66.0.0 ('Josie') 64-bit
        _STATISTICS_WRITING_DATE_UTC: 2025-06-16 08:23:58
        _STATISTICS_TAGS: BPS DURATION NUMBER_OF_FRAMES NUMBER_OF_BYTES
  Stream #0:1(eng): Audio: aac (LC), 48000 Hz, stereo, fltp (default)
      Metadata:
        HANDLER_NAME    : SoundHandler
        VENDOR_ID       : [0][0][0][0]
        ENCODER         : Lavc61.19.100 aac
        BPS             : 194344
        DURATION        : 00:24:21.669000000
        NUMBER_OF_FRAMES: 68517
        NUMBER_OF_BYTES : 35508374
        _STATISTICS_WRITING_APP: mkvpropedit v66.0.0 ('Josie') 64-bit
        _STATISTICS_WRITING_DATE_UTC: 2025-06-16 08:23:58
        _STATISTICS_TAGS: BPS DURATION NUMBER_OF_FRAMES NUMBER_OF_BYTES
Input #1, mov,mp4,m4a,3gp,3g2,mj2, from 'G:\Аниме\[Топ]\Рыцарь-вампир\ТВ-1\[JamClub] Vampire Knight - 07.mp4':
  Metadata:
    major_brand     : isom
    minor_version   : 512
    compatible_brands: isomiso2avc1mp41
    encoder         : Lavf60.16.100
  Duration: 00:24:21.69, start: 0.000000, bitrate: 3752 kb/s
  Stream #1:0[0x1](und): Video: h264 (High) (avc1 / 0x31637661), yuv420p(progressive), 1920x1080 [SAR 1:1 DAR 16:9], 3551 kb/s, 29.88 fps, 23.98 tbr, 90k tbn (default)
      Metadata:
        handler_name    : VideoHandler
        vendor_id       : [0][0][0][0]
  Stream #1:1[0x2](eng): Audio: aac (LC) (mp4a / 0x6134706D), 48000 Hz, stereo, fltp, 191 kb/s (default)
      Metadata:
        handler_name    : SoundHandler
        vendor_id       : [0][0][0][0]
Stream mapping:
  Stream #0:0 (hevc) -> settb:default
  Stream #1:0 (h264) -> settb:default
  psnr:default -> Stream #0:0 (wrapped_avframe)
  Stream #0:1 -> #0:1 (aac (native) -> pcm_s16le (native))
Output #0, null, to 'pipe:':
  Metadata:
    COMPATIBLE_BRANDS: isomiso2avc1mp41
    MAJOR_BRAND     : isom
    MINOR_VERSION   : 512
    encoder         : Lavf61.7.100
  Stream #0:0: Video: wrapped_avframe, yuv420p10le(tv, bt709, progressive), 1920x1080 [SAR 1:1 DAR 16:9], q=2-31, 200 kb/s, 23.98 fps, 23.98 tbn
      Metadata:
        encoder         : Lavc61.19.100 wrapped_avframe
  Stream #0:1(eng): Audio: pcm_s16le, 48000 Hz, stereo, s16, 1536 kb/s (default)
      Metadata:
        HANDLER_NAME    : SoundHandler
        VENDOR_ID       : [0][0][0][0]
        _STATISTICS_TAGS: BPS DURATION NUMBER_OF_FRAMES NUMBER_OF_BYTES
        BPS             : 194344
        DURATION        : 00:24:21.669000000
        NUMBER_OF_FRAMES: 68517
        NUMBER_OF_BYTES : 35508374
        _STATISTICS_WRITING_APP: mkvpropedit v66.0.0 ('Josie') 64-bit
        _STATISTICS_WRITING_DATE_UTC: 2025-06-16 08:23:58
        encoder         : Lavc61.19.100 pcm_s16le
frame=  110 fps=0.0 q=-0.0 size=N/A time=00:00:04.58 bitrate=N/A speed=9.05x    frame=  269 fps=265 q=-0.0 size=N/A time=00:00:11.21 bitrate=N/A speed=  11x    frame=  473 fps=307 q=-0.0 size=N/A time=00:00:19.72 bitrate=N/A speed=12.8x    frame=  709 fps=346 q=-0.0 size=N/A time=00:00:29.57 bitrate=N/A speed=14.4x    frame=  934 fps=362 q=-0.0 size=N/A time=00:00:38.95 bitrate=N/A speed=15.1x    frame= 1177 fps=381 q=-0.0 size=N/A time=00:00:49.09 bitrate=N/A speed=15.9x    frame= 1412 fps=392 q=-0.0 size=N/A time=00:00:58.89 bitrate=N/A speed=16.4x    frame= 1643 fps=400 q=-0.0 size=N/A time=00:01:08.52 bitrate=N/A speed=16.7x    frame= 1896 fps=409 q=-0.0 size=N/A time=00:01:19.07 bitrate=N/A speed=17.1x    frame= 2136 fps=415 q=-0.0 size=N/A time=00:01:29.08 bitrate=N/A speed=17.3x    frame= 2376 fps=419 q=-0.0 size=N/A time=00:01:39.09 bitrate=N/A speed=17.5x    frame= 2601 fps=420 q=-0.0 size=N/A time=00:01:48.48 bitrate=N/A speed=17.5x    frame= 2814 fps=419 q=-0.0 size=N/A time=00:01:57.36 bitrate=N/A speed=17.5x    frame= 2980 fps=412 q=-0.0 size=N/A time=00:02:04.29 bitrate=N/A speed=17.2x    frame= 3147 fps=406 q=-0.0 size=N/A time=00:02:11.25 bitrate=N/A speed=16.9x    frame= 3333 fps=403 q=-0.0 size=N/A time=00:02:19.01 bitrate=N/A speed=16.8x    frame= 3494 fps=398 q=-0.0 size=N/A time=00:02:25.72 bitrate=N/A speed=16.6x    frame= 3702 fps=399 q=-0.0 size=N/A time=00:02:34.40 bitrate=N/A speed=16.6x    frame= 3873 fps=395 q=-0.0 size=N/A time=00:02:41.53 bitrate=N/A speed=16.5x    frame= 4034 fps=391 q=-0.0 size=N/A time=00:02:48.25 bitrate=N/A speed=16.3x    frame= 4209 fps=389 q=-0.0 size=N/A time=00:02:55.55 bitrate=N/A speed=16.2x    frame= 4393 fps=387 q=-0.0 size=N/A time=00:03:03.22 bitrate=N/A speed=16.1x    frame= 4574 fps=385 q=-0.0 size=N/A time=00:03:10.77 bitrate=N/A speed=16.1x    frame= 4776 fps=385 q=-0.0 size=N/A time=00:03:19.19 bitrate=N/A speed=16.1x    frame= 4999 fps=387 q=-0.0 size=N/A time=00:03:28.49 bitrate=N/A speed=16.1x    frame= 5224 fps=389 q=-0.0 size=N/A time=00:03:37.88 bitrate=N/A speed=16.2x    frame= 5450 fps=391 q=-0.0 size=N/A time=00:03:47.31 bitrate=N/A speed=16.3x    frame= 5666 fps=392 q=-0.0 size=N/A time=00:03:56.31 bitrate=N/A speed=16.3x    frame= 5852 fps=391 q=-0.0 size=N/A time=00:04:04.07 bitrate=N/A speed=16.3x    frame= 6050 fps=390 q=-0.0 size=N/A time=00:04:12.33 bitrate=N/A speed=16.3x    frame= 6228 fps=389 q=-0.0 size=N/A time=00:04:19.75 bitrate=N/A speed=16.2x    frame= 6475 fps=392 q=-0.0 size=N/A time=00:04:30.06 bitrate=N/A speed=16.3x    frame= 6690 fps=393 q=-0.0 size=N/A time=00:04:39.02 bitrate=N/A speed=16.4x    frame= 6893 fps=393 q=-0.0 size=N/A time=00:04:47.49 bitrate=N/A speed=16.4x    frame= 7107 fps=393 q=-0.0 size=N/A time=00:04:56.42 bitrate=N/A speed=16.4x    frame= 7309 fps=393 q=-0.0 size=N/A time=00:05:04.84 bitrate=N/A speed=16.4x    frame= 7552 fps=395 q=-0.0 size=N/A time=00:05:14.98 bitrate=N/A speed=16.5x    frame= 7797 fps=397 q=-0.0 size=N/A time=00:05:25.19 bitrate=N/A speed=16.6x    frame= 8010 fps=398 q=-0.0 size=N/A time=00:05:34.08 bitrate=N/A speed=16.6x    frame= 8253 fps=400 q=-0.0 size=N/A time=00:05:44.21 bitrate=N/A speed=16.7x    frame= 8479 fps=400 q=-0.0 size=N/A time=00:05:53.64 bitrate=N/A speed=16.7x    frame= 8712 fps=402 q=-0.0 size=N/A time=00:06:03.36 bitrate=N/A speed=16.8x    frame= 8948 fps=403 q=-0.0 size=N/A time=00:06:13.20 bitrate=N/A speed=16.8x    frame= 9175 fps=404 q=-0.0 size=N/A time=00:06:22.67 bitrate=N/A speed=16.9x    frame= 9411 fps=405 q=-0.0 size=N/A time=00:06:32.51 bitrate=N/A speed=16.9x    frame= 9634 fps=406 q=-0.0 size=N/A time=00:06:41.81 bitrate=N/A speed=16.9x    frame= 9871 fps=407 q=-0.0 size=N/A time=00:06:51.70 bitrate=N/A speed=  17x    frame=10120 fps=408 q=-0.0 size=N/A time=00:07:02.08 bitrate=N/A speed=  17x    frame=10355 fps=409 q=-0.0 size=N/A time=00:07:11.88 bitrate=N/A speed=17.1x    frame=10601 fps=411 q=-0.0 size=N/A time=00:07:22.15 bitrate=N/A speed=17.1x    frame=10832 fps=411 q=-0.0 size=N/A time=00:07:31.78 bitrate=N/A speed=17.1x    frame=11025 fps=411 q=-0.0 size=N/A time=00:07:39.83 bitrate=N/A speed=17.1x    frame=11248 fps=411 q=-0.0 size=N/A time=00:07:49.13 bitrate=N/A speed=17.1x    frame=11445 fps=410 q=-0.0 size=N/A time=00:07:57.35 bitrate=N/A speed=17.1x    frame=11673 fps=411 q=-0.0 size=N/A time=00:08:06.86 bitrate=N/A speed=17.1x    frame=11885 fps=411 q=-0.0 size=N/A time=00:08:15.70 bitrate=N/A speed=17.1x    frame=12078 fps=410 q=-0.0 size=N/A time=00:08:23.75 bitrate=N/A speed=17.1x    frame=12314 fps=411 q=-0.0 size=N/A time=00:08:33.59 bitrate=N/A speed=17.2x    frame=12562 fps=412 q=-0.0 size=N/A time=00:08:43.94 bitrate=N/A speed=17.2x    frame=12806 fps=413 q=-0.0 size=N/A time=00:08:54.11 bitrate=N/A speed=17.2x    frame=13041 fps=414 q=-0.0 size=N/A time=00:09:03.91 bitrate=N/A speed=17.3x    frame=13246 fps=414 q=-0.0 size=N/A time=00:09:12.46 bitrate=N/A speed=17.3x    frame=13470 fps=414 q=-0.0 size=N/A time=00:09:21.81 bitrate=N/A speed=17.3x    frame=13686 fps=414 q=-0.0 size=N/A time=00:09:30.82 bitrate=N/A speed=17.3x    frame=13881 fps=414 q=-0.0 size=N/A time=00:09:38.95 bitrate=N/A speed=17.3x    frame=14093 fps=414 q=-0.0 size=N/A time=00:09:47.79 bitrate=N/A speed=17.3x    frame=14321 fps=414 q=-0.0 size=N/A time=00:09:57.30 bitrate=N/A speed=17.3x    frame=14565 fps=415 q=-0.0 size=N/A time=00:10:07.48 bitrate=N/A speed=17.3x    frame=14789 fps=415 q=-0.0 size=N/A time=00:10:16.82 bitrate=N/A speed=17.3x    frame=15021 fps=416 q=-0.0 size=N/A time=00:10:26.50 bitrate=N/A speed=17.3x    frame=15248 fps=416 q=-0.0 size=N/A time=00:10:35.96 bitrate=N/A speed=17.4x    frame=15489 fps=417 q=-0.0 size=N/A time=00:10:46.02 bitrate=N/A speed=17.4x    frame=15735 fps=417 q=-0.0 size=N/A time=00:10:56.28 bitrate=N/A speed=17.4x    frame=15958 fps=418 q=-0.0 size=N/A time=00:11:05.58 bitrate=N/A speed=17.4x    frame=16200 fps=418 q=-0.0 size=N/A time=00:11:15.67 bitrate=N/A speed=17.4x    frame=16435 fps=419 q=-0.0 size=N/A time=00:11:25.47 bitrate=N/A speed=17.5x    frame=16673 fps=419 q=-0.0 size=N/A time=00:11:35.40 bitrate=N/A speed=17.5x    frame=16896 fps=420 q=-0.0 size=N/A time=00:11:44.70 bitrate=N/A speed=17.5x    frame=17123 fps=420 q=-0.0 size=N/A time=00:11:54.17 bitrate=N/A speed=17.5x    frame=17374 fps=420 q=-0.0 size=N/A time=00:12:04.64 bitrate=N/A speed=17.5x    frame=17608 fps=421 q=-0.0 size=N/A time=00:12:14.40 bitrate=N/A speed=17.6x    frame=17841 fps=421 q=-0.0 size=N/A time=00:12:24.11 bitrate=N/A speed=17.6x    frame=18072 fps=422 q=-0.0 size=N/A time=00:12:33.75 bitrate=N/A speed=17.6x    frame=18299 fps=422 q=-0.0 size=N/A time=00:12:43.22 bitrate=N/A speed=17.6x    frame=18526 fps=422 q=-0.0 size=N/A time=00:12:52.68 bitrate=N/A speed=17.6x    frame=18781 fps=423 q=-0.0 size=N/A time=00:13:03.32 bitrate=N/A speed=17.6x    frame=19016 fps=423 q=-0.0 size=N/A time=00:13:13.12 bitrate=N/A speed=17.7x    frame=19258 fps=424 q=-0.0 size=N/A time=00:13:23.21 bitrate=N/A speed=17.7x    frame=19495 fps=424 q=-0.0 size=N/A time=00:13:33.10 bitrate=N/A speed=17.7x    frame=19725 fps=424 q=-0.0 size=N/A time=00:13:42.69 bitrate=N/A speed=17.7x    frame=19954 fps=425 q=-0.0 size=N/A time=00:13:52.24 bitrate=N/A speed=17.7x    frame=20194 fps=425 q=-0.0 size=N/A time=00:14:02.25 bitrate=N/A speed=17.7x    frame=20422 fps=425 q=-0.0 size=N/A time=00:14:11.76 bitrate=N/A speed=17.7x    frame=20665 fps=426 q=-0.0 size=N/A time=00:14:21.90 bitrate=N/A speed=17.8x    frame=20915 fps=426 q=-0.0 size=N/A time=00:14:32.32 bitrate=N/A speed=17.8x    frame=21141 fps=426 q=-0.0 size=N/A time=00:14:41.75 bitrate=N/A speed=17.8x    frame=21353 fps=426 q=-0.0 size=N/A time=00:14:50.59 bitrate=N/A speed=17.8x    frame=21569 fps=426 q=-0.0 size=N/A time=00:14:59.60 bitrate=N/A speed=17.8x    frame=21785 fps=426 q=-0.0 size=N/A time=00:15:08.61 bitrate=N/A speed=17.8x    frame=22025 fps=426 q=-0.0 size=N/A time=00:15:18.62 bitrate=N/A speed=17.8x    frame=22248 fps=427 q=-0.0 size=N/A time=00:15:27.92 bitrate=N/A speed=17.8x    frame=22493 fps=427 q=-0.0 size=N/A time=00:15:38.14 bitrate=N/A speed=17.8x    frame=22725 fps=427 q=-0.0 size=N/A time=00:15:47.82 bitrate=N/A speed=17.8x    frame=22959 fps=427 q=-0.0 size=N/A time=00:15:57.58 bitrate=N/A speed=17.8x    frame=23192 fps=428 q=-0.0 size=N/A time=00:16:07.29 bitrate=N/A speed=17.8x    frame=23405 fps=428 q=-0.0 size=N/A time=00:16:16.18 bitrate=N/A speed=17.8x    frame=23638 fps=428 q=-0.0 size=N/A time=00:16:25.90 bitrate=N/A speed=17.8x    frame=23881 fps=428 q=-0.0 size=N/A time=00:16:36.03 bitrate=N/A speed=17.9x    frame=24100 fps=428 q=-0.0 size=N/A time=00:16:45.17 bitrate=N/A speed=17.9x    frame=24342 fps=428 q=-0.0 size=N/A time=00:16:55.26 bitrate=N/A speed=17.9x    frame=24596 fps=429 q=-0.0 size=N/A time=00:17:05.85 bitrate=N/A speed=17.9x    frame=24837 fps=429 q=-0.0 size=N/A time=00:17:15.90 bitrate=N/A speed=17.9x    frame=25084 fps=430 q=-0.0 size=N/A time=00:17:26.21 bitrate=N/A speed=17.9x    frame=25323 fps=430 q=-0.0 size=N/A time=00:17:36.18 bitrate=N/A speed=17.9x    frame=25562 fps=430 q=-0.0 size=N/A time=00:17:46.14 bitrate=N/A speed=17.9x    frame=25798 fps=431 q=-0.0 size=N/A time=00:17:55.99 bitrate=N/A speed=  18x    frame=26021 fps=431 q=-0.0 size=N/A time=00:18:05.29 bitrate=N/A speed=  18x    frame=26261 fps=431 q=-0.0 size=N/A time=00:18:15.30 bitrate=N/A speed=  18x    frame=26483 fps=431 q=-0.0 size=N/A time=00:18:24.56 bitrate=N/A speed=  18x    frame=26707 fps=431 q=-0.0 size=N/A time=00:18:33.90 bitrate=N/A speed=  18x    frame=26934 fps=431 q=-0.0 size=N/A time=00:18:43.37 bitrate=N/A speed=  18x    frame=27177 fps=431 q=-0.0 size=N/A time=00:18:53.50 bitrate=N/A speed=  18x    frame=27408 fps=431 q=-0.0 size=N/A time=00:19:03.14 bitrate=N/A speed=  18x    frame=27631 fps=432 q=-0.0 size=N/A time=00:19:12.44 bitrate=N/A speed=  18x    frame=27864 fps=432 q=-0.0 size=N/A time=00:19:22.16 bitrate=N/A speed=  18x    frame=28097 fps=432 q=-0.0 size=N/A time=00:19:31.87 bitrate=N/A speed=  18x    frame=28340 fps=432 q=-0.0 size=N/A time=00:19:42.01 bitrate=N/A speed=  18x    frame=28514 fps=431 q=-0.0 size=N/A time=00:19:49.27 bitrate=N/A speed=  18x    frame=28671 fps=430 q=-0.0 size=N/A time=00:19:55.81 bitrate=N/A speed=  18x    frame=28849 fps=430 q=-0.0 size=N/A time=00:20:03.24 bitrate=N/A speed=17.9x    frame=29048 fps=429 q=-0.0 size=N/A time=00:20:11.54 bitrate=N/A speed=17.9x    frame=29286 fps=430 q=-0.0 size=N/A time=00:20:21.47 bitrate=N/A speed=17.9x    frame=29530 fps=430 q=-0.0 size=N/A time=00:20:31.64 bitrate=N/A speed=17.9x    frame=29773 fps=430 q=-0.0 size=N/A time=00:20:41.78 bitrate=N/A speed=17.9x    frame=29997 fps=430 q=-0.0 size=N/A time=00:20:51.12 bitrate=N/A speed=17.9x    frame=30237 fps=431 q=-0.0 size=N/A time=00:21:01.13 bitrate=N/A speed=  18x    frame=30473 fps=431 q=-0.0 size=N/A time=00:21:10.97 bitrate=N/A speed=  18x    frame=30709 fps=431 q=-0.0 size=N/A time=00:21:20.82 bitrate=N/A speed=  18x    frame=30949 fps=431 q=-0.0 size=N/A time=00:21:30.83 bitrate=N/A speed=  18x    frame=31196 fps=432 q=-0.0 size=N/A time=00:21:41.13 bitrate=N/A speed=  18x    frame=31430 fps=432 q=-0.0 size=N/A time=00:21:50.89 bitrate=N/A speed=  18x    frame=31672 fps=432 q=-0.0 size=N/A time=00:22:00.98 bitrate=N/A speed=  18x    frame=31920 fps=432 q=-0.0 size=N/A time=00:22:11.33 bitrate=N/A speed=  18x    frame=32163 fps=433 q=-0.0 size=N/A time=00:22:21.46 bitrate=N/A speed=  18x    frame=32413 fps=433 q=-0.0 size=N/A time=00:22:31.89 bitrate=N/A speed=18.1x    frame=32628 fps=433 q=-0.0 size=N/A time=00:22:40.85 bitrate=N/A speed=18.1x    frame=32866 fps=433 q=-0.0 size=N/A time=00:22:50.78 bitrate=N/A speed=18.1x    frame=33088 fps=433 q=-0.0 size=N/A time=00:23:00.04 bitrate=N/A speed=18.1x    frame=33287 fps=433 q=-0.0 size=N/A time=00:23:08.34 bitrate=N/A speed=  18x    frame=33492 fps=432 q=-0.0 size=N/A time=00:23:16.89 bitrate=N/A speed=  18x    frame=33722 fps=433 q=-0.0 size=N/A time=00:23:26.48 bitrate=N/A speed=  18x    frame=33966 fps=433 q=-0.0 size=N/A time=00:23:36.66 bitrate=N/A speed=18.1x    frame=34210 fps=433 q=-0.0 size=N/A time=00:23:46.84 bitrate=N/A speed=18.1x    frame=34429 fps=433 q=-0.0 size=N/A time=00:23:55.97 bitrate=N/A speed=18.1x    frame=34633 fps=433 q=-0.0 size=N/A time=00:24:04.48 bitrate=N/A speed=18.1x    frame=34858 fps=433 q=-0.0 size=N/A time=00:24:13.91 bitrate=N/A speed=18.1x    [Parsed_psnr_10 @ 000001dbb07a1980] PSNR y:49.742343 u:51.814791 v:52.103547 average:50.362884 min:36.251151 max:inf
[out#0/null @ 000001dbaeccadc0] video:15058KiB audio:274068KiB subtitle:0KiB other streams:0KiB global headers:0KiB muxing overhead: unknown
frame=35044 fps=433 q=-0.0 Lsize=N/A time=00:24:21.62 bitrate=N/A speed=18.1x    
